#!OML:ASF E:\emotionWalksFemale\Project 1\Capture day 1\Session 1\Female1.ASF
:FULLY-SPECIFIED
:DEGREES
48
root 8.60905 15.4626 22.5037 180.387 -1.4126 -178.699
lowerback 10.823 1.31793 1.64627
upperback -3.38938 1.99349 -0.0263281
thorax -9.66382 0.854858 -1.33269
lowerneck -9.04628 -3.58712 -6.92237
upperneck 8.3643 -4.69247 7.01861
head 4.30839 -2.18124 2.9787
rclavicle 1.79217e-015 -2.28602e-015
rhumerus -51.1591 15.3635 -98.6351
rradius 35.0018
rwrist 21.7209
rhand -9.59369 -54.6083
rfingers 7.12502
rthumb 16.3749 -83.937
lclavicle 1.79217e-015 -2.28602e-015
lhumerus -44.9834 -1.23943 87.8029
lradius 29.8383
lwrist -12.8251
lhand -3.98332 -36.6723
lfingers 7.12502
lthumb 21.77 -7.87662
rfemur -2.04198 12.4673 26.1294
rtibia 18.3468
rfoot -16.778 -24.5611
rtoes 1.46523
lfemur -8.33027 -13.8701 -22.2853
ltibia 26.8609
lfoot -23.5862 11.6683
ltoes -23.9747
49
root 8.60817 15.4571 22.5089 180.477 -1.41534 -178.712
lowerback 10.8313 1.30714 1.65074
upperback -3.38264 1.98002 -0.0248982
thorax -9.66168 0.84827 -1.3313
lowerneck -8.95859 -3.56054 -7.04752
upperneck 8.2417 -4.65739 7.18341
head 4.26081 -2.16153 3.05421
rclavicle -2.71636e-014 -1.2921e-015
rhumerus -51.08 15.542 -98.6593
rradius 34.976
rwrist 21.8365
rhand -9.4198 -54.6676
rfingers 7.12502
rthumb 16.5423 -83.9825
lclavicle -2.71636e-014 -1.2921e-015
lhumerus -44.9151 -1.15347 87.7707
lradius 29.8636
lwrist -12.9474
lhand -4.09695 -36.8284
lfingers 7.12502
lthumb 21.6609 -8.02011
rfemur -2.30821 12.3068 26.0546
rtibia 18.5977
rfoot -16.9906 -24.3666
rtoes 1.409
lfemur -8.52799 -13.7955 -22.2594
ltibia 26.9866
lfoot -23.6438 11.4218
ltoes -23.2802
50
root 8.60794 15.4546 22.5149 180.58 -1.55545 -178.766
lowerback 10.8893 1.24793 1.64667
upperback -3.43068 1.89873 -0.0522311
thorax -9.75039 0.80649 -1.34553
lowerneck -8.83951 -3.48996 -7.13249
upperneck 8.20445 -4.57385 7.32197
head 4.22872 -2.11933 3.11869
rclavicle 6.53815e-016 4.37326e-015
rhumerus -51.1215 15.801 -98.8147
rradius 34.799
rwrist 22.4241
rhand -9.89427 -54.4271
rfingers 7.12502
rthumb 16.0855 -83.7795
lclavicle 6.53815e-016 4.37326e-015
lhumerus -44.9443 -1.19868 87.7536
lradius 29.9542
lwrist -13.0552
lhand -4.22676 -36.7422
lfingers 7.12502
lthumb 21.5362 -7.91952
rfemur -2.57397 12.0971 25.9492
rtibia 18.8392
rfoot -17.1302 -24.2318
rtoes 1.62042
lfemur -8.75766 -13.7409 -22.2691
ltibia 27.1218
lfoot -23.6194 11.2057
ltoes -23.3546
51
root 8.60817 15.4538 22.5199 180.669 -1.64325 -178.711
lowerback 10.9854 1.20097 1.71906
upperback -3.4507 1.84966 -0.0400451
thorax -9.8289 0.777397 -1.36705
lowerneck -8.89566 -3.45503 -7.11998
upperneck 8.20065 -4.52521 7.33302
head 4.23327 -2.09311 3.12282
rclavicle -6.57853e-015 -2.88238e-015
rhumerus -50.9217 15.8792 -98.7645
rradius 35.1711
rwrist 21.0243
rhand -9.21108 -54.8345
rfingers 7.12502
rthumb 16.7432 -84.1325
lclavicle -6.57853e-015 -2.88238e-015
lhumerus -44.92 -1.20122 87.7036
lradius 29.978
lwrist -13.1578
lhand -4.19022 -36.8083
lfingers 7.12502
lthumb 21.5713 -7.9897
rfemur -2.80356 11.9561 25.9737
rtibia 19.0368
rfoot -17.1573 -24.0914
rtoes 1.99308
lfemur -8.98687 -13.6304 -22.156
ltibia 27.2633
lfoot -23.6949 11.1071
ltoes -23.629
52
root 8.60914 15.4534 22.5232 180.739 -1.68809 -178.675
lowerback 11.045 1.1725 1.73512
upperback -3.4331 1.81676 -0.0252534
thorax -9.84579 0.761102 -1.35537
lowerneck -8.8527 -3.4549 -7.07196
upperneck 7.98371 -4.51683 7.31006
head 4.15797 -2.08895 3.10931
rclavicle 2.86265e-014 4.37326e-015
rhumerus -50.8334 16.0322 -98.7894
rradius 35.0347
rwrist 21.4103
rhand -9.89934 -54.4652
rfingers 7.12502
rthumb 16.0806 -83.818
lclavicle 2.86265e-014 4.37326e-015
lhumerus -44.8169 -1.16841 87.6365
lradius 29.9334
lwrist -13.2756
lhand -4.2552 -37.2342
lfingers 7.12502
lthumb 21.5089 -8.4084
rfemur -2.98654 11.8776 25.9937
rtibia 19.2136
rfoot -17.1683 -24.0498
rtoes 2.1361
lfemur -9.18103 -13.4514 -22.0749
ltibia 27.4022
lfoot -23.7454 11.0759
ltoes -24.3402
53
root 8.61095 15.4509 22.5244 180.796 -1.71436 -178.7
lowerback 11.0595 1.16473 1.69169
upperback -3.42018 1.79963 -0.0332452
thorax -9.84165 0.755555 -1.33643
lowerneck -8.65649 -3.43679 -7.02259
upperneck 7.69065 -4.48759 7.2627
head 4.03207 -2.07904 3.09164
rclavicle -3.96016e-016 -6.95746e-015
rhumerus -50.8403 16.1233 -98.8057
rradius 34.9944
rwrist 21.7706
rhand -10.4893 -54.1513
rfingers 7.12502
rthumb 15.5125 -83.5491
lclavicle -3.96016e-016 -6.95746e-015
lhumerus -44.8461 -1.32202 87.6405
lradius 30.0626
lwrist -13.2619
lhand -4.20157 -37.6237
lfingers 7.12502
lthumb 21.5604 -8.80384
rfemur -3.14528 11.8173 25.9586
rtibia 19.3946
rfoot -17.2144 -24.0336
rtoes 2.06761
lfemur -9.33794 -13.2554 -22.0703
ltibia 27.5418
lfoot -23.6716 10.9551
ltoes -24.9456
54
root 8.6132 15.447 22.5251 180.876 -1.72218 -178.678
lowerback 11.0485 1.16481 1.70495
upperback -3.39497 1.80127 -0.0370626
thorax -9.80684 0.75626 -1.3476
lowerneck -8.64267 -3.43076 -6.98989
upperneck 7.54963 -4.47132 7.22969
head 3.98435 -2.07144 3.07766
rclavicle 6.09399e-015 1.09332e-015
rhumerus -50.7519 16.1063 -98.7111
rradius 34.9703
rwrist 22.2783
rhand -10.8578 -53.4932
rfingers 7.12502
rthumb 15.1575 -82.9181
lclavicle 6.09399e-015 1.09332e-015
lhumerus -44.8049 -1.59481 87.7139
lradius 30.1822
lwrist -13.0738
lhand -4.26026 -37.7317
lfingers 7.12502
lthumb 21.504 -8.90533
rfemur -3.35236 11.7949 25.9763
rtibia 19.6214
rfoot -17.3132 -24.02
rtoes 1.84887
lfemur -9.50859 -13.067 -22.0043
ltibia 27.6636
lfoot -23.6773 10.7499
ltoes -24.7617
55
root 8.61473 15.4441 22.527 180.945 -1.73735 -178.715
lowerback 11.0573 1.15866 1.68739
upperback -3.35192 1.78803 -0.0696701
thorax -9.76447 0.751131 -1.36971
lowerneck -8.65742 -3.41866 -7.02888
upperneck 7.36968 -4.45191 7.35699
head 3.93468 -2.05691 3.12486
rclavicle -2.2472e-015 -2.78299e-015
rhumerus -50.6224 16.0515 -98.6
rradius 34.9095
rwrist 22.8379
rhand -11.1234 -52.9111
rfingers 7.12502
rthumb 14.9016 -82.3551
lclavicle -2.2472e-015 -2.78299e-015
lhumerus -44.5409 -1.67563 87.6906
lradius 30.0447
lwrist -13.0535
lhand -4.56114 -37.7298
lfingers 7.12502
lthumb 21.215 -8.87077
rfemur -3.55586 11.7114 25.9221
rtibia 19.849
rfoot -17.4363 -24.0142
rtoes 1.52503
lfemur -9.65599 -12.956 -22.0183
ltibia 27.7907
lfoot -23.7926 10.654
ltoes -24.551
56
root 8.6157 15.4411 22.5308 180.997 -1.74653 -178.766
lowerback 11.1201 1.1516 1.6331
upperback -3.32054 1.77167 -0.0749912
thorax -9.76877 0.746809 -1.34299
lowerneck -8.56823 -3.39349 -7.07125
upperneck 7.09229 -4.40852 7.42705
head 3.83531 -2.03531 3.15801
rclavicle -3.41723e-014 -4.77083e-015
rhumerus -50.3679 15.9741 -98.4065
rradius 35.1639
rwrist 21.8621
rhand -10.272 -53.1993
rfingers 7.12502
rthumb 15.7217 -82.5807
lclavicle -3.41723e-014 -4.77083e-015
lhumerus -44.3079 -1.53512 87.5993
lradius 29.8748
lwrist -13.2373
lhand -4.69748 -37.9122
lfingers 7.12502
lthumb 21.0841 -9.03852
rfemur -3.73755 11.593 25.8422
rtibia 20.0404
rfoot -17.5731 -23.9202
rtoes 1.58545
lfemur -9.82749 -12.8703 -22.0448
ltibia 27.95
lfoot -23.8842 10.5368
ltoes -24.2973
57
root 8.61503 15.4389 22.533 181.081 -1.74966 -178.686
lowerback 11.1402 1.1369 1.71623
upperback -3.3115 1.76819 -0.0364755
thorax -9.76962 0.741417 -1.34825
lowerneck -8.45155 -3.38674 -6.98419
upperneck 6.86043 -4.38673 7.27365
head 3.73888 -2.03087 3.09988
rclavicle -4.5969e-015 2.28602e-015
rhumerus -50.1524 15.9754 -98.2789
rradius 34.9577
rwrist 22.2299
rhand -10.4331 -53.2484
rfingers 7.12502
rthumb 15.5666 -82.6419
lclavicle -4.5969e-015 2.28602e-015
lhumerus -44.2788 -1.55347 87.5938
lradius 29.9263
lwrist -13.3262
lhand -4.66383 -37.9881
lfingers 7.12502
lthumb 21.1164 -9.11803
rfemur -3.93826 11.509 25.8961
rtibia 20.2156
rfoot -17.6616 -23.8035
rtoes 2.04282
lfemur -10.0612 -12.7235 -21.9105
ltibia 28.1234
lfoot -23.9415 10.3177
ltoes -23.9806
58
root 8.61416 15.4366 22.5342 181.141 -1.70894 -178.609
lowerback 11.2112 1.13209 1.82029
upperback -3.32043 1.77953 -0.0299841
thorax -9.81817 0.739874 -1.40418
lowerneck -8.46323 -3.39328 -6.81369
upperneck 6.87984 -4.39708 7.08263
head 3.73931 -2.03939 3.01236
rclavicle 6.28889e-015 4.07509e-015
rhumerus -49.9431 15.846 -98.1385
rradius 34.9178
rwrist 22.1075
rhand -10.6079 -53.4215
rfingers 7.12502
rthumb 15.3982 -82.828
lclavicle 6.28889e-015 4.07509e-015
lhumerus -44.2544 -1.59283 87.5234
lradius 29.9553
lwrist -13.4374
lhand -4.50452 -37.894
lfingers 7.12502
lthumb 21.2694 -9.04109
rfemur -4.09926 11.4213 25.9504
rtibia 20.368
rfoot -17.6627 -23.7003
rtoes 2.27364
lfemur -10.2329 -12.4813 -21.7985
ltibia 28.2952
lfoot -23.9833 10.1492
ltoes -24.2082
59
root 8.61444 15.4327 22.5384 181.146 -1.62143 -178.583
lowerback 11.4337 1.14649 1.83682
upperback -3.38854 1.8067 -0.0309791
thorax -10.0229 0.747888 -1.4272
lowerneck -8.41781 -3.3752 -6.67983
upperneck 7.04656 -4.3903 6.96166
head 3.77603 -2.03908 2.95389
rclavicle -6.23532e-016 -4.57205e-015
rhumerus -49.9176 15.6065 -97.9418
rradius 34.5687
rwrist 23.2998
rhand -11.6138 -53.0369
rfingers 7.12502
rthumb 14.4291 -82.5153
lclavicle -6.23532e-016 -4.57205e-015
lhumerus -44.2224 -1.495 87.3612
lradius 29.8423
lwrist -13.5531
lhand -4.11647 -38.1466
lfingers 7.12502
lthumb 21.6421 -9.33607
rfemur -4.20666 11.3498 25.9603
rtibia 20.5078
rfoot -17.716 -23.5735
rtoes 2.042
lfemur -10.3391 -12.1667 -21.7579
ltibia 28.47
lfoot -23.976 10.0805
ltoes -24.7464
60
root 8.61456 15.4296 22.5419 181.193 -1.54917 -178.517
lowerback 11.5576 1.15973 1.85831
upperback -3.45279 1.83478 0.0146242
thorax -10.167 0.758442 -1.40035
lowerneck -8.21277 -3.33533 -6.62302
upperneck 7.01311 -4.34486 6.86548
head 3.72544 -2.02353 2.92074
rclavicle 3.70625e-015 3.97569e-015
rhumerus -49.785 15.3448 -97.6533
rradius 34.9691
rwrist 22.0411
rhand -10.8576 -53.7865
rfingers 7.12502
rthumb 15.1577 -83.2114
lclavicle 3.70625e-015 3.97569e-015
lhumerus -44.2664 -1.42123 87.3092
lradius 29.8851
lwrist -13.5457
lhand -3.81628 -38.2733
lfingers 7.12502
lthumb 21.9304 -9.49635
rfemur -4.38304 11.2971 26.0008
rtibia 20.68
rfoot -17.8318 -23.4553
rtoes 1.7758
lfemur -10.5124 -11.9486 -21.6589
ltibia 28.6531
lfoot -24.0423 9.96618
ltoes -24.663
61
root 8.61579 15.4265 22.5421 181.298 -1.50897 -178.477
lowerback 11.5207 1.16626 1.8407
upperback -3.44289 1.84415 0.063092
thorax -10.1361 0.766283 -1.33893
lowerneck -8.07147 -3.3277 -6.53424
upperneck 6.78099 -4.32421 6.7121
head 3.62521 -2.01977 2.86299
rclavicle -1.257e-014 -1.2424e-015
rhumerus -49.5103 15.1873 -97.3486
rradius 35.1981
rwrist 21.2922
rhand -10.3449 -54.5125
rfingers 7.12502
rthumb 15.6515 -83.8994
lclavicle -1.257e-014 -1.2424e-015
lhumerus -44.1142 -1.25426 87.2554
lradius 29.8538
lwrist -13.6191
lhand -3.9972 -38.3506
lfingers 7.12502
lthumb 21.7566 -9.55341
rfemur -4.63756 11.2447 26.0097
rtibia 20.9013
rfoot -17.9067 -23.3941
rtoes 1.56325
lfemur -10.731 -11.7764 -21.5741
ltibia 28.8204
lfoot -24.1962 9.83752
ltoes -24.5607
62
root 8.61696 15.4226 22.5409 181.377 -1.4791 -178.505
lowerback 11.5324 1.17142 1.83811
upperback -3.41611 1.84795 0.0276777
thorax -10.1121 0.767843 -1.37625
lowerneck -8.01257 -3.31736 -6.40259
upperneck 6.58482 -4.31074 6.63167
head 3.55076 -2.01435 2.81915
rclavicle 7.34339e-015 -4.96962e-015
rhumerus -49.2058 14.9934 -97.1288
rradius 35.1528
rwrist 21.4529
rhand -10.3416 -54.8995
rfingers 7.12502
rthumb 15.6546 -84.2862
lclavicle 7.34339e-015 -4.96962e-015
lhumerus -43.8584 -1.11814 87.0594
lradius 29.6698
lwrist -13.7005
lhand -4.45937 -39.0531
lfingers 7.12502
lthumb 21.3128 -10.2051
rfemur -4.85438 11.118 25.9519
rtibia 21.1435
rfoot -17.9634 -23.2804
rtoes 1.21348
lfemur -10.8963 -11.5957 -21.5778
ltibia 28.9828
lfoot -24.1946 9.84233
ltoes -25.2405
